{
  "asset": {
    "version": "2.0",
    "generator": "THREE.GLTFExporter"
  },
  "scenes": [
    {
      "name": "AuxScene",
      "nodes": [
        4
      ]
    }
  ],
  "scene": 0,
  "nodes": [
    {
      "name": "MugBody",
      "mesh": 0
    },
    {
      "name": "MugInner",
      "mesh": 1
    },
    {
      "name": "MugHandle",
      "mesh": 2
    },
    {
      "name": "MugPrintable",
      "mesh": 3
    },
    {
      "name": "PremiumMug",
      "children": [
        0,
        1,
        2,
        3
      ]
    }
  ],
  "bufferViews": [
    {
      "buffer": 0,
      "byteOffset": 0,
      "byteLength": 98568,
      "target": 34962,
      "byteStride": 12
    },
    {
      "buffer": 0,
      "byteOffset": 98568,
      "byteLength": 65712,
      "target": 34962,
      "byteStride": 8
    },
    {
      "buffer": 0,
      "byteOffset": 164280,
      "byteLength": 98568,
      "target": 34962,
      "byteStride": 12
    },
    {
      "buffer": 0,
      "byteOffset": 262848,
      "byteLength": 84960,
      "target": 34963
    },
    {
      "buffer": 0,
      "byteOffset": 347808,
      "byteLength": 20280,
      "target": 34962,
      "byteStride": 12
    },
    {
      "buffer": 0,
      "byteOffset": 368088,
      "byteLength": 13520,
      "target": 34962,
      "byteStride": 8
    },
    {
      "buffer": 0,
      "byteOffset": 381608,
      "byteLength": 20280,
      "target": 34962,
      "byteStride": 12
    },
    {
      "buffer": 0,
      "byteOffset": 401888,
      "byteLength": 12480,
      "target": 34963
    },
    {
      "buffer": 0,
      "byteOffset": 414368,
      "byteLength": 68724,
      "target": 34962,
      "byteStride": 12
    },
    {
      "buffer": 0,
      "byteOffset": 483092,
      "byteLength": 68724,
      "target": 34962,
      "byteStride": 12
    },
    {
      "buffer": 0,
      "byteOffset": 551816,
      "byteLength": 45816,
      "target": 34962,
      "byteStride": 8
    },
    {
      "buffer": 0,
      "byteOffset": 597632,
      "byteLength": 64848,
      "target": 34963
    },
    {
      "buffer": 0,
      "byteOffset": 662480,
      "byteLength": 4344,
      "target": 34962,
      "byteStride": 12
    },
    {
      "buffer": 0,
      "byteOffset": 666824,
      "byteLength": 4344,
      "target": 34962,
      "byteStride": 12
    },
    {
      "buffer": 0,
      "byteOffset": 671168,
      "byteLength": 2896,
      "target": 34962,
      "byteStride": 8
    },
    {
      "buffer": 0,
      "byteOffset": 674064,
      "byteLength": 2160,
      "target": 34963
    }
  ],
  "buffers": [
    {
      "byteLength": 676224,
      "uri": "data:application/octet-stream;base64,"
    }
  ],
  "accessors": [
    {
      "bufferView": 0,
      "componentType": 5126,
      "count": 8214,
      "max": [
        2.0999999046325684,
        1.9800000190734863,
        2.0999999046325684
      ],
      "min": [
        -2.0999999046325684,
        -1.9800000190734863,
        -2.0999999046325684
      ],
      "type": "VEC3"
    },
    {
      "bufferView": 1,
      "componentType": 5126,
      "count": 8214,
      "max": [
        1,
        1
      ],
      "min": [
        0,
        0
      ],
      "type": "VEC2"
    },
    {
      "bufferView": 2,
      "componentType": 5126,
      "count": 8214,
      "max": [
        1,
        1,
        1
      ],
      "min": [
        -1,
        -1,
        -1
      ],
      "type": "VEC3"
    },
    {
      "bufferView": 3,
      "componentType": 5123,
      "count": 42480,
      "max": [
        8213
      ],
      "min": [
        0
      ],
      "type": "SCALAR"
    },
    {
      "bufferView": 4,
      "componentType": 5126,
      "count": 1690,
      "max": [
        1.8200000524520874,
        1.7799999713897705,
        1.8200000524520874
      ],
      "min": [
        -1.8200000524520874,
        -1.690000057220459,
        -1.8200000524520874
      ],
      "type": "VEC3"
    },
    {
      "bufferView": 5,
      "componentType": 5126,
      "count": 1690,
      "max": [
        1,
        1
      ],
      "min": [
        0,
        0
      ],
      "type": "VEC2"
    },
    {
      "bufferView": 6,
      "componentType": 5126,
      "count": 1690,
      "max": [
        0.9997784495353699,
        1,
        0.9997784495353699
      ],
      "min": [
        -0.9997784495353699,
        -1,
        -0.9997784495353699
      ],
      "type": "VEC3"
    },
    {
      "bufferView": 7,
      "componentType": 5123,
      "count": 6240,
      "max": [
        1689
      ],
      "min": [
        0
      ],
      "type": "SCALAR"
    },
    {
      "bufferView": 8,
      "componentType": 5126,
      "count": 5727,
      "max": [
        3.1592729091644287,
        1.302222490310669,
        0.4614904820919037
      ],
      "min": [
        1.6799999475479126,
        -1.3729119300842285,
        -0.2175753116607666
      ],
      "type": "VEC3"
    },
    {
      "bufferView": 9,
      "componentType": 5126,
      "count": 5727,
      "max": [
        1,
        1,
        0.999896764755249
      ],
      "min": [
        -1,
        -1,
        -0.999896764755249
      ],
      "type": "VEC3"
    },
    {
      "bufferView": 10,
      "componentType": 5126,
      "count": 5727,
      "max": [
        1.0227272510528564,
        1
      ],
      "min": [
        -0.022727273404598236,
        0
      ],
      "type": "VEC2"
    },
    {
      "bufferView": 11,
      "componentType": 5123,
      "count": 32424,
      "max": [
        5726
      ],
      "min": [
        0
      ],
      "type": "SCALAR"
    },
    {
      "bufferView": 12,
      "componentType": 5126,
      "count": 362,
      "max": [
        2.059999942779541,
        1.4100000858306885,
        2.059999942779541
      ],
      "min": [
        -2.059999942779541,
        -1.4900000095367432,
        -2.059999942779541
      ],
      "type": "VEC3"
    },
    {
      "bufferView": 13,
      "componentType": 5126,
      "count": 362,
      "max": [
        0.9994059801101685,
        0.034462276846170425,
        0.9994059801101685
      ],
      "min": [
        -0.9994059801101685,
        0.034462276846170425,
        -0.9994059801101685
      ],
      "type": "VEC3"
    },
    {
      "bufferView": 14,
      "componentType": 5126,
      "count": 362,
      "max": [
        1,
        1
      ],
      "min": [
        0,
        0
      ],
      "type": "VEC2"
    },
    {
      "bufferView": 15,
      "componentType": 5123,
      "count": 1080,
      "max": [
        361
      ],
      "min": [
        0
      ],
      "type": "SCALAR"
    }
  ],
  "materials": [
    {
      "pbrMetallicRoughness": {
        "metallicFactor": 0,
        "roughnessFactor": 0.28
      },
      "name": "CeramicBody",
      "extensions": {
        "KHR_materials_ior": {
          "ior": 1.6595744680851063
        },
        "KHR_materials_clearcoat": {
          "clearcoatFactor": 1,
          "clearcoatRoughnessFactor": 0.06
        }
      }
    },
    {
      "pbrMetallicRoughness": {
        "baseColorFactor": [
          0.9046611743890203,
          0.9301108583738498,
          0.9646862478936612,
          1
        ],
        "metallicFactor": 0,
        "roughnessFactor": 0.34
      },
      "name": "CeramicInner",
      "extensions": {
        "KHR_materials_clearcoat": {
          "clearcoatFactor": 0.85,
          "clearcoatRoughnessFactor": 0.08
        }
      }
    },
    {
      "pbrMetallicRoughness": {
        "metallicFactor": 0,
        "roughnessFactor": 0.28
      },
      "name": "CeramicBody",
      "extensions": {
        "KHR_materials_ior": {
          "ior": 1.6595744680851063
        },
        "KHR_materials_clearcoat": {
          "clearcoatFactor": 1,
          "clearcoatRoughnessFactor": 0.06
        }
      }
    },
    {
      "pbrMetallicRoughness": {
        "metallicFactor": 0,
        "roughnessFactor": 0.24
      },
      "alphaMode": "BLEND",
      "name": "PrintableSurface",
      "extensions": {
        "KHR_materials_clearcoat": {
          "clearcoatFactor": 1,
          "clearcoatRoughnessFactor": 0.04
        }
      }
    }
  ],
  "meshes": [
    {
      "primitives": [
        {
          "mode": 4,
          "attributes": {
            "POSITION": 0,
            "TEXCOORD_0": 1,
            "NORMAL": 2
          },
          "indices": 3,
          "material": 0
        }
      ]
    },
    {
      "primitives": [
        {
          "mode": 4,
          "attributes": {
            "POSITION": 4,
            "TEXCOORD_0": 5,
            "NORMAL": 6
          },
          "indices": 7,
          "material": 1
        }
      ]
    },
    {
      "primitives": [
        {
          "mode": 4,
          "attributes": {
            "POSITION": 8,
            "NORMAL": 9,
            "TEXCOORD_0": 10
          },
          "indices": 11,
          "material": 2
        }
      ]
    },
    {
      "primitives": [
        {
          "mode": 4,
          "attributes": {
            "POSITION": 12,
            "NORMAL": 13,
            "TEXCOORD_0": 14
          },
          "indices": 15,
          "material": 3
        }
      ]
    }
  ],
  "extensionsUsed": [
    "KHR_materials_ior",
    "KHR_materials_clearcoat"
  ]
}